<svg xmlns="http://www.w3.org/2000/svg" width="579" height="579" viewBox="0 0 579 579" version="1.1">
	<path d="M 125.500 36.734 C 117.250 44.828, 97.338 64.494, 81.250 80.438 L 52 109.426 52 284.706 L 52 459.986 74.250 481.710 C 86.487 493.658, 108.211 515.036, 122.525 529.217 L 148.549 555 263.680 555 L 378.810 555 424.905 508.336 L 471 461.673 471 385.887 L 471 310.101 483.589 275.301 C 495.692 241.842, 514.051 191.797, 527.722 155 C 539.209 124.080, 541.308 117.975, 540.672 117.339 C 540.329 116.996, 539.475 117.182, 538.774 117.753 C 536.571 119.547, 491.572 132.067, 444.500 143.983 C 431.850 147.186, 417.975 150.787, 413.667 151.986 C 409.359 153.186, 405.671 154.004, 405.472 153.806 C 405.068 153.401, 440.207 141.631, 446.588 140.034 L 450.676 139.010 392.088 80.518 L 333.500 22.026 237 22.022 L 140.500 22.018 125.500 36.734 M 103.329 73.209 L 65 111.418 65 278.539 L 65 445.661 102.684 481.580 C 123.410 501.336, 144.737 521.663, 150.077 526.750 L 159.786 536 263.248 536 L 366.711 536 408.845 493.750 L 450.979 451.500 450.989 389.583 C 450.995 355.529, 450.847 327.854, 450.661 328.083 C 450.474 328.313, 444.511 334.804, 437.411 342.508 C 430.310 350.213, 422.333 358.957, 419.683 361.940 L 414.867 367.364 415.183 349.681 C 415.358 339.955, 415.275 332.030, 415 332.069 C 414.725 332.108, 406.625 340.833, 397 351.456 L 379.500 370.772 366.504 358.136 C 359.357 351.186, 336.182 328.363, 315.004 307.419 C 262.704 255.693, 154.006 149.343, 134.515 130.827 L 131.529 127.991 150.505 108.995 L 169.480 90 236.372 90 L 303.264 90 327.382 113.639 C 340.647 126.641, 352.802 138.645, 354.394 140.316 L 357.288 143.354 370.894 140.068 C 378.377 138.260, 391.608 134.951, 400.296 132.714 L 416.092 128.646 415.796 123.978 L 415.500 119.310 374 77.156 L 332.500 35.003 237.079 35.002 L 141.659 35 103.329 73.209 M 531 122.058 C 530.175 122.576, 522.075 125.883, 513 129.409 C 503.925 132.934, 489.975 138.392, 482 141.538 C 445.659 155.871, 369.910 182.679, 304.162 204.477 C 294.627 207.638, 287.202 210.567, 287.662 210.986 C 288.567 211.809, 318.978 229.748, 341.225 242.582 L 354.950 250.500 355.016 255.500 C 355.125 263.884, 359.543 313.877, 360.236 314.569 C 360.964 315.298, 364.870 312.284, 388.004 293.145 L 404.147 279.790 406.324 281.752 C 413.246 287.993, 447.163 316.157, 447.396 315.858 C 447.549 315.661, 448.430 313.561, 449.353 311.190 C 454.628 297.645, 493.962 209.376, 512.493 169.500 C 517.860 157.950, 523.817 145.125, 525.731 141 C 527.644 136.875, 530.513 130.866, 532.105 127.647 C 533.697 124.428, 535 121.616, 535 121.397 C 535 120.687, 532.538 121.094, 531 122.058 M 504.500 144.513 C 475.986 164.605, 467.949 170.359, 442.500 188.896 C 415.736 208.391, 409.022 213.303, 376 237.545 C 368.025 243.399, 360.766 248.934, 359.870 249.845 C 358.363 251.375, 358.370 253.183, 359.957 273.754 C 360.902 285.994, 361.861 296.194, 362.089 296.422 C 362.316 296.650, 366.102 290.473, 370.501 282.695 C 376.636 271.850, 379.880 267.266, 384.422 263.027 C 387.679 259.987, 402.979 245.547, 418.422 230.937 C 433.865 216.327, 451 200.155, 456.500 194.998 C 510.459 144.411, 517.189 137.786, 514.318 138.085 C 513.868 138.132, 509.450 141.025, 504.500 144.513 M 110 299.031 L 110 404.395 148.250 442.148 L 186.500 479.902 262.965 479.951 L 339.429 480 351.663 492.750 L 363.898 505.500 363.949 493.048 L 364 480.595 360.787 477.280 L 357.574 473.965 366.852 464.649 L 376.129 455.332 363.841 443.416 C 331.669 412.219, 271.108 352.723, 200.500 282.949 C 172.668 255.446, 113.186 196.760, 110.429 194.083 C 110.193 193.854, 110 241.081, 110 299.031" stroke="none" fill="#000000" fill-rule="evenodd"/>
</svg>